<?xml version="1.0" encoding="UTF-8" standalone="no"?>
<!DOCTYPE svg PUBLIC "-//W3C//DTD SVG 1.1//EN"
 "http://www.w3.org/Graphics/SVG/1.1/DTD/svg11.dtd">
<!-- Generated by graphviz version 12.2.0 (20241103.1931)
 -->
<!-- Title: device.cpp Pages: 1 -->
<svg width="331pt" height="83pt"
 viewBox="0.00 0.00 330.75 82.50" xmlns="http://www.w3.org/2000/svg" xmlns:xlink="http://www.w3.org/1999/xlink">
<g id="graph0" class="graph" transform="scale(1 1) rotate(0) translate(4 78.5)">
<title>device.cpp</title>
<!-- Node1 -->
<g id="Node000001" class="node">
<title>Node1</title>
<g id="a_Node000001"><a xlink:title=" ">
<polygon fill="#999999" stroke="#666666" points="178,-74.5 115.5,-74.5 115.5,-55.25 178,-55.25 178,-74.5"/>
<text text-anchor="middle" x="146.75" y="-61" font-family="Helvetica,sans-Serif" font-size="10.00">device.cpp</text>
</a>
</g>
</g>
<!-- Node2 -->
<g id="Node000002" class="node">
<title>Node2</title>
<g id="a_Node000002"><a xlink:title=" ">
<polygon fill="#e0e0e0" stroke="#999999" points="53.5,-19.25 0,-19.25 0,0 53.5,0 53.5,-19.25"/>
<text text-anchor="middle" x="26.75" y="-5.75" font-family="Helvetica,sans-Serif" font-size="10.00">iostream</text>
</a>
</g>
</g>
<!-- Node1&#45;&gt;Node2 -->
<g id="edge1_Node000001_Node000002" class="edge">
<title>Node1&#45;&gt;Node2</title>
<g id="a_edge1_Node000001_Node000002"><a xlink:title=" ">
<path fill="none" stroke="#63b8ff" d="M126.39,-54.84C107.52,-46.47 79.16,-33.88 57.52,-24.28"/>
<polygon fill="#63b8ff" stroke="#63b8ff" points="59.15,-21.17 48.59,-20.32 56.31,-27.57 59.15,-21.17"/>
</a>
</g>
</g>
<!-- Node3 -->
<g id="Node000003" class="node">
<title>Node3</title>
<g id="a_Node000003"><a xlink:title=" ">
<polygon fill="#e0e0e0" stroke="#999999" points="122.38,-19.25 71.12,-19.25 71.12,0 122.38,0 122.38,-19.25"/>
<text text-anchor="middle" x="96.75" y="-5.75" font-family="Helvetica,sans-Serif" font-size="10.00">ostream</text>
</a>
</g>
</g>
<!-- Node1&#45;&gt;Node3 -->
<g id="edge2_Node000001_Node000003" class="edge">
<title>Node1&#45;&gt;Node3</title>
<g id="a_edge2_Node000001_Node000003"><a xlink:title=" ">
<path fill="none" stroke="#63b8ff" d="M138.49,-55.08C131.59,-47.73 121.53,-37.01 113.01,-27.94"/>
<polygon fill="#63b8ff" stroke="#63b8ff" points="115.62,-25.61 106.22,-20.71 110.52,-30.4 115.62,-25.61"/>
</a>
</g>
</g>
<!-- Node4 -->
<g id="Node000004" class="node">
<title>Node4</title>
<g id="a_Node000004"><a xlink:title=" ">
<polygon fill="#e0e0e0" stroke="#999999" points="252.75,-19.25 140.75,-19.25 140.75,0 252.75,0 252.75,-19.25"/>
<text text-anchor="middle" x="196.75" y="-5.75" font-family="Helvetica,sans-Serif" font-size="10.00">vulkan/vulkan_raii.hpp</text>
</a>
</g>
</g>
<!-- Node1&#45;&gt;Node4 -->
<g id="edge3_Node000001_Node000004" class="edge">
<title>Node1&#45;&gt;Node4</title>
<g id="a_edge3_Node000001_Node000004"><a xlink:title=" ">
<path fill="none" stroke="#63b8ff" d="M155.01,-55.08C161.91,-47.73 171.97,-37.01 180.49,-27.94"/>
<polygon fill="#63b8ff" stroke="#63b8ff" points="182.98,-30.4 187.28,-20.71 177.88,-25.61 182.98,-30.4"/>
</a>
</g>
</g>
<!-- Node5 -->
<g id="Node000005" class="node">
<title>Node5</title>
<g id="a_Node000005"><a xlink:href="utils_8hpp.html" target="_top" xlink:title=" ">
<polygon fill="white" stroke="#666666" points="322.75,-19.25 270.75,-19.25 270.75,0 322.75,0 322.75,-19.25"/>
<text text-anchor="middle" x="296.75" y="-5.75" font-family="Helvetica,sans-Serif" font-size="10.00">utils.hpp</text>
</a>
</g>
</g>
<!-- Node1&#45;&gt;Node5 -->
<g id="edge4_Node000001_Node000005" class="edge">
<title>Node1&#45;&gt;Node5</title>
<g id="a_edge4_Node000001_Node000005"><a xlink:title=" ">
<path fill="none" stroke="#63b8ff" d="M172.2,-54.84C196.44,-46.24 233.18,-33.19 260.49,-23.5"/>
<polygon fill="#63b8ff" stroke="#63b8ff" points="261.5,-26.85 269.75,-20.21 259.16,-20.26 261.5,-26.85"/>
</a>
</g>
</g>
</g>
</svg>
