<?xml version="1.0" encoding="UTF-8" standalone="no"?>
<!DOCTYPE svg PUBLIC "-//W3C//DTD SVG 1.1//EN"
 "http://www.w3.org/Graphics/SVG/1.1/DTD/svg11.dtd">
<!-- Generated by graphviz version 12.2.0 (20241103.1931)
 -->
<!-- Title: main.cpp Pages: 1 -->
<svg width="132pt" height="83pt"
 viewBox="0.00 0.00 132.12 82.50" xmlns="http://www.w3.org/2000/svg" xmlns:xlink="http://www.w3.org/1999/xlink">
<g id="graph0" class="graph" transform="scale(1 1) rotate(0) translate(4 78.5)">
<title>main.cpp</title>
<!-- Node1 -->
<g id="Node000001" class="node">
<title>Node1</title>
<g id="a_Node000001"><a xlink:title=" ">
<polygon fill="#999999" stroke="#666666" points="89.25,-74.5 34.25,-74.5 34.25,-55.25 89.25,-55.25 89.25,-74.5"/>
<text text-anchor="middle" x="61.75" y="-61" font-family="Helvetica,sans-Serif" font-size="10.00">main.cpp</text>
</a>
</g>
</g>
<!-- Node2 -->
<g id="Node000002" class="node">
<title>Node2</title>
<g id="a_Node000002"><a xlink:title=" ">
<polygon fill="#e0e0e0" stroke="#999999" points="53.5,-19.25 0,-19.25 0,0 53.5,0 53.5,-19.25"/>
<text text-anchor="middle" x="26.75" y="-5.75" font-family="Helvetica,sans-Serif" font-size="10.00">iostream</text>
</a>
</g>
</g>
<!-- Node1&#45;&gt;Node2 -->
<g id="edge1_Node000001_Node000002" class="edge">
<title>Node1&#45;&gt;Node2</title>
<g id="a_edge1_Node000001_Node000002"><a xlink:title=" ">
<path fill="none" stroke="#63b8ff" d="M55.97,-55.08C51.34,-48.03 44.68,-37.9 38.88,-29.08"/>
<polygon fill="#63b8ff" stroke="#63b8ff" points="41.9,-27.31 33.49,-20.87 36.05,-31.15 41.9,-27.31"/>
</a>
</g>
</g>
<!-- Node3 -->
<g id="Node000003" class="node">
<title>Node3</title>
<g id="a_Node000003"><a xlink:title=" ">
<polygon fill="#e0e0e0" stroke="#999999" points="124.12,-19.25 71.38,-19.25 71.38,0 124.12,0 124.12,-19.25"/>
<text text-anchor="middle" x="97.75" y="-5.75" font-family="Helvetica,sans-Serif" font-size="10.00">graphics</text>
</a>
</g>
</g>
<!-- Node1&#45;&gt;Node3 -->
<g id="edge2_Node000001_Node000003" class="edge">
<title>Node1&#45;&gt;Node3</title>
<g id="a_edge2_Node000001_Node000003"><a xlink:title=" ">
<path fill="none" stroke="#63b8ff" d="M67.69,-55.08C72.46,-48.03 79.31,-37.9 85.27,-29.08"/>
<polygon fill="#63b8ff" stroke="#63b8ff" points="88.13,-31.11 90.83,-20.86 82.33,-27.19 88.13,-31.11"/>
</a>
</g>
</g>
</g>
</svg>
