<?xml version="1.0" encoding="UTF-8" standalone="no"?>
<!DOCTYPE svg PUBLIC "-//W3C//DTD SVG 1.1//EN"
 "http://www.w3.org/Graphics/SVG/1.1/DTD/svg11.dtd">
<!-- Generated by graphviz version 12.2.0 (20241103.1931)
 -->
<!-- Title: main Pages: 1 -->
<svg width="235pt" height="64pt"
 viewBox="0.00 0.00 235.00 64.25" xmlns="http://www.w3.org/2000/svg" xmlns:xlink="http://www.w3.org/1999/xlink">
<g id="graph0" class="graph" transform="scale(1 1) rotate(0) translate(4 60.25)">
<title>main</title>
<!-- Node1 -->
<g id="Node000001" class="node">
<title>Node1</title>
<g id="a_Node000001"><a xlink:title=" ">
<polygon fill="#999999" stroke="#666666" points="37,-37.25 0,-37.25 0,-18 37,-18 37,-37.25"/>
<text text-anchor="middle" x="18.5" y="-23.75" font-family="Helvetica,sans-Serif" font-size="10.00">main</text>
</a>
</g>
</g>
<!-- Node2 -->
<g id="Node000002" class="node">
<title>Node2</title>
<g id="a_Node000002"><a xlink:href="namespacegraphics.html#ae59a13e7350eaf92ad51aecd11c1ef51" target="_top" xlink:title=" ">
<polygon fill="white" stroke="#666666" points="218.75,-56.25 81.25,-56.25 81.25,-37 218.75,-37 218.75,-56.25"/>
<text text-anchor="middle" x="150" y="-42.75" font-family="Helvetica,sans-Serif" font-size="10.00">graphics::vk_createInstance</text>
</a>
</g>
</g>
<!-- Node1&#45;&gt;Node2 -->
<g id="edge1_Node000001_Node000002" class="edge">
<title>Node1&#45;&gt;Node2</title>
<g id="a_edge1_Node000001_Node000002"><a xlink:title=" ">
<path fill="none" stroke="#63b8ff" d="M37.23,-30.23C46.09,-31.53 57.5,-33.2 69.62,-34.98"/>
<polygon fill="#63b8ff" stroke="#63b8ff" points="69.01,-38.43 79.41,-36.41 70.02,-31.5 69.01,-38.43"/>
</a>
</g>
</g>
<!-- Node3 -->
<g id="Node000003" class="node">
<title>Node3</title>
<g id="a_Node000003"><a xlink:href="namespacegraphics.html#abad731a8821a638463c6a60185aa28ff" target="_top" xlink:title=" ">
<polygon fill="white" stroke="#666666" points="227,-19.25 73,-19.25 73,0 227,0 227,-19.25"/>
<text text-anchor="middle" x="150" y="-5.75" font-family="Helvetica,sans-Serif" font-size="10.00">graphics::vk_enumerateDevices</text>
</a>
</g>
</g>
<!-- Node1&#45;&gt;Node3 -->
<g id="edge2_Node000001_Node000003" class="edge">
<title>Node1&#45;&gt;Node3</title>
<g id="a_edge2_Node000001_Node000003"><a xlink:title=" ">
<path fill="none" stroke="#63b8ff" d="M37.23,-25.16C45,-24.08 54.72,-22.73 65.17,-21.28"/>
<polygon fill="#63b8ff" stroke="#63b8ff" points="65.34,-24.79 74.77,-19.94 64.38,-17.85 65.34,-24.79"/>
</a>
</g>
</g>
</g>
</svg>
